<?xml version="1.0" encoding="utf-8"?>
<!-- Generator: Adobe Illustrator 25.0.1, SVG Export Plug-In . SVG Version: 6.00 Build 0)  -->
<svg version="1.1" id="Ebene_1" xmlns="http://www.w3.org/2000/svg" xmlns:xlink="http://www.w3.org/1999/xlink" x="0px" y="0px"
	 viewBox="0 0 316.51 169.6" style="enable-background:new 0 0 316.51 169.6;" xml:space="preserve">
<style type="text/css">
	.st0{fill:#1D1D1B;}
	.st1{fill:#FFFFFF;}
	.st2{fill:#878787;}
	.st3{fill:#009989;}
	.st4{fill:#83BB26;}
	.st5{fill:#F49800;}
	.st6{fill:#E52726;}
	.st7{fill:#009FE3;}
	.st8{fill:#9FA5D3;}
	.st9{fill:#FBBA07;}
</style>
<path class="st0" d="M224.71,135.9h11.01l-11.64,18.49h16.3v-2.45h-11.73l11.64-18.49h-15.59V135.9z M214.51,151.94v-18.49h-2.72
	v20.94h9.57v-2.45H214.51z M202.99,148.71h-6.82l3.44-10.8L202.99,148.71z M207.81,154.39l-7.24-20.94h-1.97l-7.21,20.94h2.87
	l1.08-3.2h8.5l1.11,3.2H207.81z M187.73,135.9v-2.45h-11.76v20.94h2.72v-8.56h9.04v-2.45h-9.04v-7.48H187.73z M164.01,145.23h-4.64
	v-9.33h4.64c2.72,0,4.46,2.15,4.46,4.67C168.47,143.11,166.73,145.23,164.01,145.23 M156.65,154.39h2.72v-6.67h4.64
	c4.37,0,7.18-3.29,7.18-7.15c0-3.83-2.81-7.12-7.18-7.12h-7.36V154.39z"/>
<path class="st0" d="M305.65,104.79c5.15,0,8.05,3.95,8.05,8.02c0,4.04-2.9,8.02-8.05,8.02h-3.74v-16.04H305.65z M299.19,102.33
	v20.94h6.46c6.94,0,10.86-5.18,10.86-10.47c0-5.3-3.92-10.47-10.86-10.47H299.19z M280.92,102.33h-3.02v20.94h2.72v-16.19
	l9.42,16.19h3.02v-20.94h-2.72v16.18L280.92,102.33z M269.13,117.59h-6.82l3.44-10.8L269.13,117.59z M273.95,123.28l-7.24-20.94
	h-1.97l-7.21,20.94h2.87l1.08-3.2h8.5l1.11,3.2H273.95z M248.26,120.82v-18.49h-2.72v20.94h9.57v-2.45H248.26z M227.26,102.33h-3.02
	v20.94h2.72v-16.19l9.42,16.19h3.02v-20.94h-2.72v16.18L227.26,102.33z M215.3,123.28h2.81v-20.94h-2.81V123.28z M209.32,104.79
	v-2.45h-11.76v20.94h11.76v-2.45h-9.03v-6.73h9.03v-2.45h-9.03v-6.85H209.32z M188.72,123.28h2.72v-20.94h-2.72v9.3h-9.75v-9.3
	h-2.72v20.94h2.72v-9.19h9.75V123.28z M164.01,114.12h-4.64v-9.33h4.64c2.72,0,4.46,2.15,4.46,4.67
	C168.47,112,166.73,114.12,164.01,114.12 M156.65,123.28h2.72v-6.67h4.31l4.16,6.67h3.11l-4.4-7.12c2.87-0.99,4.64-3.65,4.64-6.7
	c0-3.83-2.81-7.12-7.18-7.12h-7.36V123.28z"/>
<path class="st0" d="M295.42,92.16h5.66v-6.78h2.66l4.33,6.78h6.57l-4.89-7.72c3.04-1.43,4.86-4.47,4.86-7.9
	c0-4.75-3.5-8.84-8.91-8.84h-10.28V92.16z M304.97,80.77h-3.88v-8.46h3.88c2.38,0,3.92,1.96,3.92,4.23
	C308.88,78.81,307.34,80.77,304.97,80.77 M289.2,72.24v-4.54h-14.92v24.47h14.92v-4.54h-9.26v-5.38h9.26v-4.44h-9.26v-5.56H289.2z
	 M267.85,67.69h-6.43l-6.47,17.02l-6.54-17.02h-6.54v24.47h5.52V76.99l5.45,15.17h4.19l5.28-15.17v15.17h5.52V67.69z M235.44,67.69
	h-6.43l-6.47,17.02l-6.54-17.02h-6.54v24.47H215V76.99l5.45,15.17h4.2l5.28-15.17v15.17h5.52V67.69z M191.33,87.69
	c-4.47,0-7.17-3.74-7.17-7.76c0-4.02,2.69-7.76,7.17-7.76c4.44,0,7.17,3.74,7.17,7.76C198.5,83.95,195.77,87.69,191.33,87.69
	 M191.33,92.79c8.11,0,12.93-6.15,12.93-12.86c0-6.71-4.82-12.86-12.93-12.86c-8.14,0-12.97,6.15-12.97,12.86
	C178.36,86.64,183.19,92.79,191.33,92.79 M155.64,84.05c0,5.59,3.98,8.74,9.23,8.74c5.38,0,9.19-2.79,9.19-7.83
	c0-4.89-4.58-6.5-8.6-7.9c-2.06-0.73-3.5-1.61-3.5-3.22c0-1.68,1.36-2.52,2.97-2.52c1.96,0,3.04,1.36,3.04,3.53h5.66
	c0-4.16-2.9-7.79-8.7-7.79c-4.47,0-8.6,2.38-8.6,6.89c0,4.96,3.78,6.4,8.28,8.04c2.13,0.8,3.81,1.47,3.81,3.42
	c0,1.71-1.4,2.87-3.22,2.87c-2.31,0-3.92-1.57-3.92-4.23H155.64z"/>
<path class="st0" d="M267.98,61.05h5.66v-6.78h2.66l4.34,6.78h6.57l-4.89-7.72c3.04-1.43,4.86-4.47,4.86-7.9
	c0-4.75-3.49-8.84-8.91-8.84h-10.28V61.05z M277.53,49.65h-3.88v-8.46h3.88c2.38,0,3.91,1.96,3.91,4.23
	C281.44,47.7,279.9,49.65,277.53,49.65 M242.89,52.69c0,5.03,3.67,8.98,9.51,8.98c5.87,0,9.54-3.95,9.54-8.98V36.58h-5.66v16.08
	c0,2.24-1.57,4.13-3.88,4.13c-2.31,0-3.84-1.89-3.84-4.13V36.58h-5.66V52.69z M227.44,61.05h5.66V41.47h5.56v-4.89h-16.74v4.89h5.52
	V61.05z M211.82,56.15V36.58h-5.66v24.47h12.62v-4.89H211.82z M181.06,52.69c0,5.03,3.67,8.98,9.51,8.98c5.87,0,9.54-3.95,9.54-8.98
	V36.58h-5.66v16.08c0,2.24-1.57,4.13-3.88,4.13c-2.31,0-3.84-1.89-3.84-4.13V36.58h-5.66V52.69z M170.22,61.05h6.82l-9.68-12.23
	l9.68-12.23h-6.82l-7.9,10.38V36.58h-5.66v24.47h5.66V50.7L170.22,61.05z"/>
<path class="st1" d="M54.72,87.29c0.16,0.5,0.42,0.97,0.76,1.38l5.44,6.51c0.4,0.48,0.91,0.87,1.49,1.13l5.06,2.28l0.83,6.25
	c0.07,0.5,0.22,0.99,0.46,1.43l7.62,14.13c0.21,0.39,0.49,0.75,0.82,1.06l8.87,8.33l-4.95-1.19c-0.31-0.07-0.62-0.11-0.93-0.12
	c0,0-20.74-0.21-20.76-0.21c-0.56,0-1.11,0.11-1.63,0.33l-3.36,1.43l0.12-43.27L54.72,87.29z M2.85,61.31l12.43,4.14l10.05,4.93
	l5.8,3.11l-0.36,2.99c-0.01,0.06-0.01,0.12-0.02,0.18L30.6,78.6l-0.16,0.02c-0.63,0.1-1.23,0.34-1.75,0.71l-8.46,5.94
	c-0.42,0.3-0.79,0.67-1.08,1.11l-5.35,8.05c-0.24,0.37-0.43,0.77-0.55,1.2l-3,10.87c-0.4,1.46,0.02,3.02,1.1,4.08
	c0.79,0.77,1.84,1.19,2.92,1.19c0.4,0,0.8-0.05,1.19-0.17l11.42-3.39c0.22-0.06,0.43-0.15,0.64-0.25l4.16-2.02l0.52-0.01l0.44,4.84
	c0.04,0.41,0.14,0.82,0.29,1.21l3.61,8.81l1.93,4.48c0.1,0.23,0.22,0.46,0.36,0.67l5.58,8.37l-14.77,6.28
	c-0.23,0.1-0.46,0.22-0.67,0.36l-12.56,8.3c-0.98,0.65-1.64,1.68-1.82,2.84c-0.18,1.16,0.14,2.34,0.87,3.25l10.21,12.38
	c0.7,0.91,1.75,1.49,2.89,1.6c0.14,0.01,0.27,0.02,0.4,0.02c1,0,1.98-0.36,2.74-1.03l10.15-8.87l15.68-6.14l12.15-1.75l17.79,1.32
	l15.41,4.88l8.84,6.71l1.96,3.18c0.68,1.11,1.84,1.83,3.13,1.96c0.14,0.01,0.28,0.02,0.42,0.02c1.15,0,2.25-0.48,3.04-1.32
	l11.34-10.9c0.81-0.81,1.26-1.91,1.23-3.06c-0.03-1.14-0.52-2.23-1.38-3l-7.29-6.57c-0.19-0.17-0.39-0.32-0.6-0.45l-3.4-2.1
	l-12.44-8.2c-0.53-0.35-1.13-0.57-1.76-0.65l-3.47-0.45l-3.97-15.33l-5.03-19.8l0.97-0.7l9.47,5.74c0.46,0.28,0.96,0.46,1.49,0.55
	l17.22,2.82c0.22,0.04,0.45,0.05,0.67,0.05c0.35,0,0.7-0.04,1.03-0.13l14.22-3.64c1.75-0.45,3.02-1.98,3.13-3.79
	c0.11-1.81-0.96-3.48-2.65-4.13l-11.88-4.62l-17.22-12.74c0.04-0.18,0.07-0.37,0.08-0.56l0.38-4.66l15.12-10.62
	c0.31-0.22,0.6-0.48,0.84-0.78l10.46-12.87c0.47-0.58,0.78-1.27,0.89-2.01l1.11-7.46c0.24-1.57-0.44-3.14-1.75-4.04
	c-0.71-0.49-1.54-0.74-2.37-0.74c-0.7,0-1.4,0.18-2.04,0.53l-8.63,4.83l-20.34,6.35l-3.15-2.46l2.83-8.24
	c0.22-0.65,0.28-1.35,0.17-2.03l-1.4-8.56l-1.06-6.69c-0.07-0.45-0.22-0.88-0.43-1.29l-3.47-6.6c-0.25-0.48-0.6-0.91-1.02-1.26
	l-8.46-7.05C87,0.33,86.05,0,85.09,0c-0.58,0-1.16,0.12-1.71,0.37c-1.45,0.66-2.41,2.08-2.45,3.68L80.54,18l-5.16,12.96
	c-0.14,0.36-0.24,0.74-0.27,1.12l-0.05,0.5l-5.72-1.03c-0.24-0.04-0.49-0.07-0.74-0.07c-0.27,0-0.54,0.03-0.81,0.08L56.48,18.8
	c-0.3-0.34-0.66-0.63-1.05-0.86l-10.4-5.94c-0.63-0.36-1.34-0.55-2.06-0.55c-0.02,0-10.22,0.12-10.22,0.12
	c-1.55,0.02-2.96,0.89-3.66,2.27c-0.7,1.38-0.59,3.04,0.31,4.3l5.17,7.31l5.47,14.14c0.08,0.22,0.19,0.43,0.31,0.63l2.05,3.44
	c-0.18,0.22-0.34,0.46-0.47,0.71l-2.01,3.81l-6.72-1.64c-0.32-0.08-0.65-0.12-0.99-0.12c-0.09,0-0.19,0-0.28,0.01l-16.51,1.12
	c-0.54,0.04-1.07,0.18-1.55,0.42L2.33,53.61c-1.52,0.74-2.44,2.33-2.32,4.02C0.12,59.32,1.24,60.77,2.85,61.31"/>
<polygon class="st2" points="83.39,143.69 86.74,143.66 95.41,143.07 98.27,143.51 101.02,145.39 105.48,150.2 108.25,151.56 
	114.88,152.25 118.13,154.27 121.36,161.03 117.24,165.43 114.88,161.58 104.84,153.97 88.28,148.73 69.55,147.33 56.47,149.21 
	39.67,155.79 28.97,165.14 25.56,160.73 27.15,160.03 32.3,152.99 35.39,151.74 42.81,150.56 48.72,147.21 51.99,143.73 
	55.59,142.41 64.41,143.22 68.58,141.87 71.31,139.69 75.58,139.69 "/>
<polygon class="st2" points="121.42,147.85 128.7,154.42 124.06,159.02 122.08,154.75 117.71,150.89 107.55,147.95 102.24,142.86 
	98.38,140.61 86.37,141.24 83.29,140.36 80.04,139.08 76.97,137.64 72.4,137.08 67.79,138.89 63.09,140.43 56.47,140.02 
	48.32,141.97 46.19,145.25 42.52,147.48 35.68,148.73 30.25,150.35 25.77,157.25 22.97,157.99 18.71,152.7 31.28,144.4 
	59.41,132.44 80.13,132.65 93.57,135.88 99.08,136.67 105.48,137.49 117.96,145.72 "/>
<polygon class="st3" points="42.18,67.11 35.61,71.17 27.24,66.67 16.86,61.58 4.17,57.35 15.69,51.71 32.2,50.6 42.08,53 
	43.43,62.47 "/>
<polygon class="st4" points="38.96,95.32 35.9,101.67 30.67,101.78 25.69,104.21 14.28,107.6 17.28,96.73 22.62,88.68 31.08,82.74 
	34.5,82.21 38.25,92.82 "/>
<polygon class="st5" points="104.74,78.5 125.17,93.61 137.58,98.43 123.36,102.08 106.14,99.26 94.31,92.09 96.99,83.36 "/>
<polygon class="st6" points="102.9,49.77 125.75,42.65 134.76,37.61 133.64,45.07 123.18,57.94 106.46,69.68 103.96,61.04 "/>
<polygon class="st7" points="59.14,43.36 48.01,44.95 43.91,38.09 38.26,23.47 32.79,15.74 42.96,15.63 53.36,21.56 66.47,36.37 
	63.78,41.76 "/>
<polygon class="st8" points="85.03,43.9 78.75,37.49 79.25,32.51 84.68,18.86 85.1,4.17 93.56,11.22 97.03,17.82 98.08,24.5 
	99.49,33.08 95.7,44.13 "/>
<polygon class="st9" points="68.6,35.67 78.75,37.49 92.85,41.9 102.9,49.77 106.06,56.31 106.94,63.8 105.92,76.29 99.45,88.41 
	94.31,92.09 88.8,96.05 89.96,100.64 94.53,118.61 98.86,135.34 99.01,136.24 80.04,118.42 72.42,104.28 71.29,95.73 64.11,92.5 
	58.68,85.99 55.77,77.1 56.55,68.73 61.69,59.98 72.11,55.94 83.86,57.35 88.58,65.05 88.8,70.22 85.93,76.44 82.45,79.51 
	77.34,79.8 71.46,76.37 69.04,73.13 68.67,69.68 70.46,67.11 74.55,66.3 78.44,68.21 78.92,71.34 77.34,74.16 79.75,74.46 
	82.63,71.88 82.69,67.52 76.81,62.47 69.92,63 66.64,64.99 64.23,73.75 66.47,78.69 74.81,86.27 85.27,85.15 91.15,79.63 
	95.15,71.75 94.68,62.47 89.5,54.24 81.27,50.3 71.69,50.71 62.24,53.3 54.06,62.17 50.42,71.87 50.24,135.52 42.3,123.6 
	40.37,119.12 36.79,110.38 36.14,103.19 35.9,101.66 34.36,85.18 34.49,82.21 34.9,76.98 35.61,71.17 37.23,63.88 42.08,53 
	45.6,46.32 48.01,44.95 66.47,36.37 "/>
</svg>
