<?xml version="1.0" encoding="utf-8"?>
<!-- Generator: Adobe Illustrator 26.1.0, SVG Export Plug-In . SVG Version: 6.00 Build 0)  -->
<!DOCTYPE svg PUBLIC "-//W3C//DTD SVG 1.1//EN" "http://www.w3.org/Graphics/SVG/1.1/DTD/svg11.dtd" [
	<!ENTITY ns_extend "http://ns.adobe.com/Extensibility/1.0/">
	<!ENTITY ns_ai "http://ns.adobe.com/AdobeIllustrator/10.0/">
	<!ENTITY ns_graphs "http://ns.adobe.com/Graphs/1.0/">
	<!ENTITY ns_vars "http://ns.adobe.com/Variables/1.0/">
	<!ENTITY ns_imrep "http://ns.adobe.com/ImageReplacement/1.0/">
	<!ENTITY ns_sfw "http://ns.adobe.com/SaveForWeb/1.0/">
	<!ENTITY ns_custom "http://ns.adobe.com/GenericCustomNamespace/1.0/">
	<!ENTITY ns_adobe_xpath "http://ns.adobe.com/XPath/1.0/">
]>
<svg version="1.1"
	 id="oben-unten-back-final_xA0_Bild_00000036232333514062505720000011459028202187795130_" xmlns:x="&ns_extend;" xmlns:i="&ns_ai;" xmlns:graph="&ns_graphs;"
	 xmlns="http://www.w3.org/2000/svg" xmlns:xlink="http://www.w3.org/1999/xlink" x="0px" y="0px" viewBox="0 0 595.44 841.92"
	 style="enable-background:new 0 0 595.44 841.92;" xml:space="preserve">
<style type="text/css">
	.st0{fill:#c29cc2;}
</style>
<g>
	<path class="st0" d="M246.89,630.95c-0.6-0.51-0.8-1.36-1.18-2.05c-1.61-4.48-4.48-8.36-6.11-12.82
		c-0.33-0.9-1.03-1.12-1.74-1.44c-1.07-1.51-1.92-3.1-1.65-5.03c0.11-0.79-0.31-1.48-0.66-1.97c-2.62-3.67-3.81-8.08-6.22-11.85
		c-1.5-2.4-2.37-4.95-1.91-7.83c0.09-0.58-0.03-1.11-0.33-1.6c-0.81-1.33-0.82-3.03-2.18-4.14c-0.69-0.56-0.26-1.67-0.3-2.54
		c-0.04-1.03,0.15-2.1-1.06-2.7c-0.42-0.21-0.39-0.66-0.12-1.03c1.28-1.74,1.21-3.74,1.17-5.74c-0.02-1.2-0.08-2.4,0.01-3.59
		c0.19-2.51-0.14-5.03-1.07-7.26c-1.22-2.94-0.9-5.87-0.91-8.84c-0.01-1.28-0.28-2.42-1.25-3.24c-1.48-1.26-2.05-2.98-2.6-4.73
		c-0.68-1.2-1.19-2.34-0.44-3.79c0.52-1,0.33-2.15-0.22-3.21c-0.71-1.35-0.29-2.18,1.28-2.11c1.69,0.08,2.33-0.31,2.65-2.29
		c0.75-4.74,0.58-6.81-2.47-10.47c-0.96-1.16-0.26-2.45-0.75-3.58c-0.42-0.99-0.88-1.97-1.23-2.98c-0.24-0.68-0.48-1.28-1.18-1.65
		c-0.31-0.16-0.75-0.69-0.68-0.88c0.66-1.75-0.86-2.32-1.67-3.27c-0.2-0.24-0.38-0.5-0.57-0.75c-1.56-2.32-2.81-4.87-4.9-6.81
		c-0.87-0.81-0.22-2-0.88-2.81c-0.78-1.53-2.05-2.75-2.68-4.41c-0.25-0.66-0.62-1.24-0.61-1.99c0.01-0.67-0.32-1.28-0.74-1.72
		c-0.75-0.78-1.29-1.59-1.21-2.73c0.04-0.52-0.43-0.83-0.76-1.16c-0.56-0.57-1.2-1.08-1.22-1.98c-1.88-1.4-1.6-4.05-3.24-5.6
		c-0.23-0.21-0.33-0.62-0.58-0.74c-1.22-0.57-1.48-1.56-1.34-2.77c0.1-0.93-0.09-1.66-1-2.21c-1.04-0.63-1.09-1.76-0.87-2.79
		c0.2-0.91-0.07-1.53-0.38-2.38c-0.89-2.39-2.85-4.1-3.7-6.51c-0.45-1.28-1.77-2.19-2.26-3.57c-0.13-0.36-0.48-0.66-0.46-1.07
		c0.08-1.83-0.97-3-2.35-3.89c-0.81-0.51-1.01-1.16-0.97-2.01c0.02-0.48-0.03-0.96,0.01-1.44c0.07-0.87-0.23-1.54-0.88-2.11
		c-0.48-0.42-0.9-0.91-1.36-1.35c-0.94-0.88-1.89-1.74-1.63-3.25c0.07-0.4-0.22-0.74-0.38-1.1c-0.6-1.34-1.68-2.46-1.67-4.1
		c0-0.8-0.87-1.29-1.42-1.86c-0.72-0.74-1.55-1.4-1.38-2.63c0.11-0.8-0.76-1.2-0.88-1.91c-0.25-1.46-1.42-2.68-1.06-4.3
		c0.07-0.29-0.15-0.57-0.39-0.82c-1.12-1.15-1.43-2.69-2.05-4.1c-0.74-1.71-0.79-3.35-0.82-5.07c-0.02-0.82-0.58-1.28-1.08-1.78
		c-0.95-0.95-1.7-1.86-1.97-3.38c-0.22-1.24-0.92-2.44-0.9-3.82c0.01-0.63-0.36-1.26-0.85-1.67c-0.98-0.82-1.05-1.87-1.03-3.03
		c0.02-1.33,0.28-2.7-0.74-3.88c-0.26-0.3-0.15-0.91-0.2-1.38c-0.05-0.47,0.08-1.09-0.17-1.39c-1.1-1.33-0.86-2.88-0.76-4.35
		c0.19-2.86-0.57-5.51-1.54-8.13c-0.42-1.15-0.76-2.26,0.28-3.32c0.42-0.43,0.26-1.06,0.27-1.61c0.01-1.28,0-2.55,0.01-3.83
		c0-0.55-0.06-1.12,0.29-1.62c1.08-1.54,0.82-3.14,0.21-4.76c-0.37-0.83-1.12-0.81-1.83-0.72c-1.57,0.21-2.16-0.65-1.71-1.92
		c0.93-2.67,0.51-5.88,3.01-7.95c0.16-0.67-0.23-1.47,0.98-1.77c0.84-0.21,1.53-1.12,1.44-2.24c-0.1-1.27,0.53-2.26,1.23-3.27
		c0.8-1.16,1.64-2.28,1.82-3.81c0.15-1.29,1.37-2.09,2.11-3.11c0.22-0.31,0.73-0.45,0.87-0.78c1.1-2.53,3.35-4.13,4.98-6.23
		c0.43-0.56,0.97-1.04,1.62-1.38c0.73-0.38,1.28-0.94,1.38-1.82c1.65-0.39,2.73-1.77,4.25-2.39c1.97-0.59,3.3-2.54,5.51-2.58
		c-0.14-0.23-0.34-0.44-0.2-0.73c2.07,0.15,3.88-0.62,5.61-1.63c0.69-0.41,1.37-0.94,2.19-0.79c2.25,0.4,3.17-1.29,3.94-2.75
		c0.49-0.94,1.46-1.98,0.86-3.32c-0.14-0.32,0.25-0.52,0.38-0.78c0.59-1.17,1.4-2.34,0.47-3.71c-0.33-0.49,0.09-0.46,0.35-0.49
		c0.76-0.09,1.22,0.3,1.4,1c0.1,0.38,0.05,0.79,0.07,1.19c0.14,2.11,1,2.97,3.08,3.06c0.24,0.01,0.48-0.01,0.72-0.01
		c1.15-0.32,2.29-0.35,3.43,0.02c0.64,0.03,1.29,0.05,1.93,0.08c1.28,0.19,2.54-0.24,3.82-0.05c1.04,0.02,2.08,0,3.11,0.07
		c0.75,0.06,1.2,0.49,0.96,1.3c-0.33,1.1-0.17,2.22-0.2,3.33c-0.02,0.7,0.21,1.32,1,1.4c0.85,0.08,1.51,0.43,2.07,1.05
		c0.35,0.38,0.83,0.43,1.32,0.46c0.39,0.03,0.91,0,1.14,0.23c0.86,0.85,1.91,0.77,2.93,0.71c1.49-0.09,2.79,0.3,3.92,1.25
		c0.5,0.42,1.03,0.63,1.69,0.77c2.03,0.45,4.17,0.71,5.77,2.29c0.17,0.17,0.4,0.41,0.58,0.4c1.58-0.16,2.72,1.3,4.29,1.13
		c0.15-0.02,0.4-0.03,0.46,0.05c1.11,1.63,3.02,1.01,4.48,1.63c1.44,0.61,2.75,1.61,4.23,2.05c1.56,0.46,2.95,1.5,4.65,1.46
		c0.69-0.01,1.2,0.27,1.7,0.72c1.84,1.66,4.14,2.38,6.39,3.29c1.67,0.68,3.53,0.62,5.1,1.68c0.72,0.49,1.48,0.82,1.97,1.59
		c1.21,1.89,3.07,2.67,5.22,2.77c0.85,0.04,1.52,0.29,2.18,0.8c0.94,0.74,1.94,1.41,3.26,1.15c0.89-0.17,1.45,0.75,2.17,0.8
		c1.38,0.1,2.44,0.56,3.29,1.63c0.14,0.18,0.4,0.39,0.59,0.38c2.3-0.17,3.56,1.93,5.52,2.53c0.51,0.16,0.98,0.52,1.55,0.46
		c1.7-0.16,3.06,0.58,4.22,1.7c0.52,0.5,1.06,0.74,1.71,0.63c1.07-0.19,2.14,0.43,3.24-0.11c0.32-0.16,0.99,0.07,1.34,0.34
		c1.64,1.26,3.63,2,5.14,3.46c0.97,0.94,2.19,1.58,3.41,2.18c1.6,0.79,3.05,1.74,3.3,3.76c0.03,0.28,0.28,0.67,0.52,0.75
		c1.6,0.56,2.31,2.11,3.52,3.11c1.22,1.02,2.28,2.23,3.4,3.37c0.73,0.74,1.39,1.52,2.3,2.07c1.32,0.8,1.51,2.34,2.12,3.6
		c0.14,0.28,0.07,0.74,0.27,0.89c1.39,1.04,1.58,2.95,2.94,3.98c0.66,0.5,0.59,1.28,0.95,1.88c1.18,1.94,2.39,3.86,3.57,5.8
		c0.21,0.35,0.39,0.76,0.81,0.82c1.33,0.2,1.69,1.03,1.56,2.23c-0.13,1.21,0.7,2.19,1.24,3.01c1.18,1.83,1.32,4.02,2.48,5.81
		c0,2.68,2.15,4.56,2.68,6.92c0.54,2.4,2.45,4.26,2.34,6.84c-0.04,0.81,0.78,1.33,1.02,2.12c0.27,0.88,1.03,1.6,0.87,2.65
		c-0.02,0.15,0.01,0.39,0.1,0.45c1.54,0.93,1.33,2.76,2.02,4.12c0.7,1.38,1.28,2.85,2.04,4.22c0.11,0.21,0.08,0.59,0.23,0.66
		c1.94,1.01,1.8,2.81,1.78,4.57c-0.01,0.59,0.2,1.12,0.65,1.49c0.91,0.76,1.13,1.82,1.54,2.87c0.77,1.99,1.77,3.91,2.76,5.81
		c0.41,0.79,0.88,1.52,0.84,2.44c1.05,1.78,1.68,3.83,3.34,5.23c0.3,0.25,0.28,0.7,0.02,1.06c0.16,1.16,1.22,2.03,1.01,3.36
		c-0.05,0.33,0.47,0.79,0.8,1.13c0.72,0.75,1.47,1.46,2.23,2.17c1,0.94,2.01,1.84,1.75,3.43c-0.1,0.61,0.36,1.03,0.78,1.41
		c1.06,0.97,1.94,2.11,3.15,2.92c2.3,1.55,3.3,4.2,5.11,6.17c1.06,1.16,1.92,2.56,3.61,2.97c0.21,0.05,0.43,0.23,0.58,0.41
		c1.12,1.38,2.57,2.27,4.22,2.9c1.12,0.43,2.13,1.01,2.94,1.93c0.19,0.22,0.58,0.43,0.83,0.39c1.24-0.2,2.13,0.58,3.08,1.07
		c1.16,0.6,2.27,1.09,3.6,0.91c0.57-0.08,1.11,0.08,1.54,0.49c0.24,0.22,0.5,0.31,0.86,0.26c2.18-0.29,2.56-0.23,3.93,0.99
		c0.54,0.48,1.09,0.58,1.74,0.59c1.26,0.01,2.54-0.18,3.64,0.77c0.3,0.26,0.92,0.18,1.39,0.18c2.24,0.02,4.47-0.04,6.71,0.03
		c1.06,0.03,1.87-0.29,2.5-1.1c0.54-0.7,1.17-1.09,2.06-1.41c2.76-1.02,5.59-1.79,8.37-2.73c1.64-0.55,3.17-1.37,4.76-2.03
		c1.25-0.52,2.21-1.73,3.27-2.67c0.53-0.47,0.92-1.13,1.76-1.09c3.77-1.81,6.26-4.94,8.48-8.32c0.26-0.39,0.31-0.93,0.69-1.24
		c3.3-2.67,4.69-6.64,6.14-10.27c1.97-4.93,3.33-10.26,1-15.64l0,0c-0.49-2.49-0.14-5.01-0.21-7.51c-0.03-1.26-0.05-2.51-0.49-3.7
		c-1.37-3.4-2.34-6.94-4.32-10.12c-0.99-1.59-1.92-3.45-1.71-5.53c-0.06-0.55-0.05-1.11-0.19-1.64c-0.16-0.61-0.97-0.57-1.24-0.97
		c-0.17-0.26,0.61-0.66,0.39-1.2c-0.09-0.21-0.17-0.48-0.34-0.6c-1.09-0.78-1.41-2.04-2.03-3.12c-0.12-0.2-0.34-0.4-0.35-0.61
		c-0.07-1.1-1.61-1.31-1.48-2.57c0.1-1.02,0.02-2.06,0.02-3.09c-0.01-1.1,0.07-2.16-0.72-3.15c-0.54-0.67-0.23-1.69-0.25-2.55
		c-0.04-1.73,0.23-3.47-0.42-5.17c-0.45-1.17-0.6-1.28-1.81-1.28c-0.91,0-1.34,0.82-2.11,0.97c-0.64-0.98-1.27-0.58-1.9,0.02
		c-1.42,1.14-3.37,0.59-4.85,1.51c-0.36,0.23-0.6,0.06-0.82-0.18c-0.8-0.88-1.8-1.6-2.27-2.75c-0.51-1.23-1.41-2.17-2.53-2.79
		c-1.91-1.05-1.74-2.88-1.93-4.58c-0.07-0.62,0.5-0.7,1-0.76c0.97-0.13,1.46-0.65,1.18-1.64c-0.15-0.52-0.08-1,0.22-1.36
		c0.6-0.73,0.87-1.42,0.54-2.39c-0.19-0.55,0.28-0.84,0.87-0.77c2.24,0.27,3.28,1.19,3.71,3.61c0.17,0.99,0.3,1.68,1.51,1.63
		c0.97-0.04,1.37,0.53,1.48,1.49c0.26,2.24,0.3,2.23,2.62,2.25c0.4,0,0.8,0.02,1.2,0.03c0.83,0.3,1.77,1.13,2.5,0.41
		c0.77-0.76,0.1-1.86-0.1-2.8c0.06-1.58-0.39-3.16-0.01-4.74c0.02-0.08,0.03-0.17,0-0.24c-0.82-1.71-0.77-3.64-1.44-5.38
		c-0.11-0.29-0.44-0.6-0.4-0.84c0.4-1.94-0.68-3.62-1.25-5.25c-0.6-1.72-0.79-3.35-0.8-5.08c-0.01-0.54-0.3-0.83-0.69-1.16
		c-0.85-0.72-1.63-1.52-2.44-2.3c-0.35-0.34-0.76-0.72-0.67-1.22c0.28-1.44-0.72-2.11-1.56-2.96c-1.15-1.17-2.68-2.08-2.98-3.91
		c-2.73-3.49-5.16-7.23-8.87-9.83c-0.2-0.14-0.38-0.46-0.54-0.44c-2.1,0.28-3.03-1.83-4.76-2.31c-1.17-0.32-1.58-1.85-2.94-1.92
		c-1.15-1.35-3.03-1.59-4.26-2.81c-0.25-0.25-0.51-0.45-0.82-0.41c-1.21,0.15-1.92-0.59-2.65-1.35c-0.28-0.29-0.6-0.5-1.02-0.57
		c-2.7-0.45-5-1.8-7.18-3.36c-0.57-0.41-1.1-0.58-1.76-0.57c-0.88,0.01-1.76-0.04-2.64,0.01c-1.26,0.08-2.37-0.12-3.19-1.21
		c-0.22-0.3-0.67-0.67-0.96-0.63c-1.82,0.23-3.38-0.62-5.03-1.06c-1.35-0.36-2.7-0.82-3.98-1.32c-1.02-0.4-1.93-0.59-2.96-0.55
		c-2.89,0.35-5.81,0.9-7.88-2.03c-0.36-0.52-1.16-0.44-1.66-0.83c-2.17,0.14-4.24-0.24-6.2-1.17c-0.6-0.28-1.28-0.46-1.81-0.04
		c-1.62,1.27-3.27,0.71-4.94,0.21c-3.6-1.35-7.3-2.03-11.15-1.92c-2.6,0.08-5.19,0.07-7.77-0.65c-1.5-0.42-3.07,0.33-4.59,0.65
		c-0.66-0.29-1.32-0.5-2.08-0.34c-1.38,0.3-2.67,0.06-3.73-0.93c-0.55-0.51-1.06-0.63-1.71-0.23c-0.79,0.49-1.57,0.57-2.49,0.18
		c-0.55-0.23-1.26-0.12-1.89-0.14c-0.87-0.02-1.75,0.07-2.49-0.6c-0.51-0.46-1.2-0.35-1.84-0.36c-1.6-0.01-3.2-0.01-4.79,0
		c-0.88,0-1.73,0.04-2.48-0.61c-0.66-0.57-1.53-0.34-2.31-0.34c-4.71-0.01-9.43-0.01-14.14-0.01c-0.95,0-1.9,0.09-2.71-0.64
		c-0.57-0.52-1.37-0.31-2.08-0.31c-4.39-0.01-8.79-0.01-13.18-0.01c-0.88,0-1.76,0.09-2.48-0.61c-0.3-0.29-0.71-0.37-1.12-0.34
		c-2.14,0.12-4.28-0.26-6.42,0.33c-1.89,0.52-3.84,0.16-5.62-0.52c-0.85-0.33-1.52-0.41-2.42-0.33c-1.86,0.15-3.7,0.18-5.29-1.43
		c-0.72-0.73-1.97-1.18-2.98-1.71c-1.45-0.77-2.53-1.87-3.76-2.84c-0.64-0.5-1.41-0.67-2.25-0.65c-1.76,0.04-3.51,0.02-5.27,0.01
		c-1.03,0-2.06,0.14-2.92-0.72c-0.48-0.48-1.22-0.29-1.85-0.29c-2.08-0.01-4.15-0.04-6.23,0.01c-0.99,0.02-1.9-0.28-2.15-1.17
		c-0.46-1.6-1.7-2.47-2.77-3.51c-1.14-1.1-2.22-2.15-2.9-3.67c-0.46-1.03-1.57-1.77-2.4-2.63c-0.93-0.97-1.72-2.27-2.86-2.79
		c-1.06-0.49-2.51-0.19-3.78-0.14c-1.04,0.04-1.78-0.32-2.55-1.02c-1.43-1.3-2.51-2.66-2.09-4.74c0.05-0.23,0.01-0.48-0.04-0.71
		c-0.13-0.62-0.59-0.77-1.07-0.53c-0.72,0.36-1.29,0.93-1.71,1.63c-0.31,0.52-0.67,0.6-1.16,0.23c-0.89-0.67-1.86-1.23-2.59-2.1
		c-0.37-0.44-0.81-0.84-0.15-1.39c0.23-0.19,0.15-0.48-0.04-0.61c-0.91-0.61-0.75-1.94-1.73-2.5c-0.35-0.2-0.57-0.57-0.57-1
		c-0.01-1.6-0.08-3.2,0.03-4.79c0.08-1.04,1.07-1.45,1.91-1.53c1.24-0.12,1.4-0.8,1.32-1.78c-0.02-0.24,0.01-0.48,0-0.72
		c-0.03-0.55,0.19-1.19-0.22-1.62c-0.49-0.52-1.02,0.11-1.55,0.14c-2.03,0.09-2.99-1.26-2.02-3.05c0.37-0.68,0.5-1.32,0.5-2.04
		c0-1.44,0.01-2.88,0-4.31c-0.01-0.82,0.02-1.61,0.85-2.08c0.3-0.17,0.52-0.45,0.49-0.77c-0.12-1.05,0.45-1.82,0.95-2.62
		c0.97-1.55,1.13-3.25,1.02-5.01c-0.04-0.72,0.06-1.44-0.02-2.15c-0.13-1.23,0.36-2.09,1.21-2.95c1.34-1.36,2.91-2.5,3.94-4.16
		c0.34-0.55,0.7-1.03,0.69-1.72c-0.01-0.38,0.04-0.88,0.27-1.13c0.84-0.87,0.73-1.92,0.65-2.94c-0.09-1.22,0.22-2.2,1.21-2.94
		c0.19-0.14,0.31-0.39,0.52-0.5c2.61-1.44,3.25-4.2,4.37-6.61c0.3-0.64,0.39-1.57,0.93-1.89c2.11-1.24,2.16-3.56,3.03-5.44
		c0.28-0.6,0.56-1.12,1.01-1.57c0.96-0.96,1.88-1.97,2.89-2.87c1.27-1.14,2.16-2.46,2.31-4.19c0.05-0.61,0.34-1.04,0.75-1.44
		c1.35-1.35,2.77-2.64,3.3-4.58c1.98-1.58,3.1-3.73,4.06-6c0.14-0.34,0.5-0.62,0.81-0.87c1.41-1.12,2.26-2.36,2.24-4.38
		c-0.02-1.28,0.85-2.67,1.95-3.66c1.16-1.05,2.1-2.19,1.78-3.92c-0.11-0.6,0.26-1.06,0.66-1.47c1.18-1.19,2.33-2.35,2.35-4.24
		c0.01-0.81,0.89-1.29,1.48-1.81c0.97-0.85,1.47-1.81,1.32-3.14c-0.17-1.54,0.31-2.69,2.09-2.85c0.85-0.08,0.91-1.07,1.55-1.39
		c4.62-0.4,9.24-0.37,13.85-0.01c0.53,0.23,1.22,0.69,0.54,1.15c-2.1,1.4-2.99,3.55-3.99,5.69c-1.33,2.85-3.32,5.33-4.63,8.21
		c-0.23,0.5-0.25,0.89,0.11,1.3c-0.98,1.42-1.76,2.99-2.98,4.26c-0.55,0.57-0.8,1.36-0.85,2.18c-0.08,1.3-0.54,2.47-1.35,3.49
		c-1.17,1.47-1.87,3.24-3.19,4.65c-1.22,1.3-1.43,3.18-1.91,4.82c-0.56,1.95-1.83,3.23-3.13,4.57c-1.71,0.52-2.74,1.97-3.07,3.42
		c-0.6,2.68-2.24,4.54-3.98,6.41c-0.93,1-1.61,2.18-2.57,3.15c-0.16,0.17-0.36,0.53-0.25,0.63c0.39,0.33,0.51-0.16,0.67-0.36
		c0.49-0.63,0.75-1.42,1.31-2c1.02-1.04,2.13-1.71,3.56-0.7c-0.77,2.53-2.21,4.67-3.82,6.72c-0.35,1.19-0.68,2.38-1.52,3.38
		c-0.43,0.51-0.98,1.11-0.41,1.89c0.08,1.87-0.06,3.67-1.48,5.11c-0.64,0.65-0.46,1.48-0.48,2.27c-0.05,1.95-0.1,2.05-1.95,2.21
		c-0.76,0.07-1.4,0.19-1.84,0.88c-0.45,0.72-1.01,0.65-1.6,0.14c-0.06-0.05-0.12-0.11-0.19-0.15c-1.89-0.97-2.71-0.71-3.47,1.24
		c-0.43,1.1-1.16,2.11-1,3.4c0.03,0.21-0.06,0.54-0.21,0.66c-1.27,1-1.47,2.5-2.06,3.86c-0.39,0.92-0.61,1.75-0.64,2.7
		c-0.04,1.48,0.28,3.01-0.79,4.36c-0.29,0.36-0.17,1.08-0.16,1.63c0.03,1.3-0.48,2.16-1.82,2.38c-0.55,0.09-0.97,0.14-0.52,0.83
		c0.87,1.34,0.42,2.36-0.71,3.31c-0.96,0.81-1.03,1.01-0.19,1.91c1.78,1.92,3.7,3.71,5.56,5.55c0.44,0.43,1.02,0.4,1.58,0.4
		c1.28,0,2.56-0.04,3.83,0.01c2.1,0.09,2.88,1.52,1.91,3.44c-0.81,1.58-0.57,2.77,1.13,3.45c1.12,0.45,1.89,1.13,2.62,1.96
		c0.87,0.99,2.13,1.3,3.22,1.89c0.14,0.08,0.44-0.14,0.66-0.22c0.41,0.03,0.03,1.84,1.23,0.4c0.8-0.97,2.11-0.13,2.16,1.23
		c0.09,2.4,3.35,6.13,5.7,6.39c1.14,0.13,2.18,0.34,3.03,1.18c0.58,0.58,1.27,0.58,1.98,0.24c0.21-0.1,0.45-0.15,0.65-0.29
		c-0.22-0.02-0.45,0.06-0.66,0.03c-4.54-0.58-7.72-3.2-10.2-6.84c-0.6-0.88-0.23-1.66,0.45-2.34c1.39-0.03,1.53-1.19,1.89-2.12
		c0.16-0.41,0.35-0.72,0.8-0.74c0.51-0.03,1,0.1,1.12,0.66c0.42,2.07,1.93,2.26,3.63,2.19c0.4-0.02,0.79,0.02,1.19,0.03
		c1.63,0.53,3.31,0.21,4.96,0.2c1.27-0.01,2.19,0.34,2.74,1.47c0.59,1.22-0.43,1.71-1.16,2.28c-0.42,0.33-0.63,0.7-0.55,1.22
		c0.14,1.34-1.81,2.53-0.27,3.96c0.99,1,2.12,1.66,3.6,1.44c0.23-0.03,0.54-0.06,0.7,0.06c1.93,1.42,4.15,0.86,6.25,0.85
		c1.46-0.01,2.63,0.3,3.62,1.4c0.52,0.57,1.19,1.34,1.85,1.39c1.74,0.14,3.14,1.24,5.02,1.16c5.5-0.22,11.02-0.08,16.53-0.08
		c0.94,0,1.74,0.22,2.65,0.66c1.9,0.92,4.02,1.54,6.23,1.03c0.39-0.09,0.78-0.25,1.17-0.22c4.55,0.31,9.04-0.87,13.59-0.59
		c0.78,0.05,1.61,0.18,2.3-0.39c0.41-0.35,0.68-0.11,1,0.18c0.25,0.22,0.69,0.28,0.88,0.05c0.94-1.13,2.2-0.71,3.35-0.72
		c4.39-0.03,8.78-0.01,13.17-0.01c0.97,0,1.86-0.04,2.46,1.03c0.65,1.15,1.8,1.36,3.1,1.33c3.75-0.07,7.51-0.02,11.26-0.02
		c0.87,0,1.76-0.09,2.48,0.6c0.44,0.42,1.04,0.35,1.59,0.36c1.12,0,2.24-0.01,3.35,0.01c0.47,0.01,1.09-0.1,1.4,0.15
		c1.41,1.12,3.03,0.74,4.59,0.8c1.1,0.04,2.25-0.18,3.16,0.73c0.1,0.1,0.29,0.18,0.44,0.17c1.78-0.13,3.18,0.77,4.56,1.7
		c0.74,0.5,1.62,0.53,2.3,0.27c2.18-0.82,4.23,0.2,6.33,0.27c0.47,0.01,0.94,0.29,1.39,0.26c1.81-0.11,3.31,0.64,4.96,1.29
		c2.44,0.96,4.87,2.36,7.74,1.9c0.93-0.15,1.91,0.28,2.53,1.09c0.59,0.76,1.43,0.97,2.25,1.25c1.98,0.68,4.08,0.99,5.98,1.96
		c0.33,0.17,0.78,0.18,1.17,0.14c2.28-0.2,4.09,0.74,5.82,2.12c1.54,1.23,3.48,1.78,5.21,2.71c1.27,0.68,2.56,1.21,4.06,1.01
		c0.3-0.04,0.81-0.02,0.91,0.14c0.78,1.4,2.65,1.54,3.39,2.79c0.78,1.34,1.83,1.37,3.04,1.29c0.47-0.03,0.93-0.19,1.39-0.3
		c0.62-0.15,1.15,0.03,1.43,0.59c0.67,1.34,1.84,1.85,3.2,2.24c0.96,0.27,1.83,0.89,2.73,1.35c0.28,0.3,0.68,0.39,1.01,0.59
		c0.61,0.37,1.39,0.8,0.98,1.62c-0.42,0.84-1.05,0.25-1.57-0.09c-0.13-0.09-0.25-0.19-0.4-0.25c-0.08,0.39,0.34,0.25,0.41,0.27
		c2.3,0.43,4.48,1.09,6.27,2.68c1.31,1,2.94,1.76,3.84,3.05c1.22,1.73,2.74,3.01,4.38,4.23c1.33,2.84,3.85,4.94,4.87,8.03
		c0.48,1.44,1.33,2.88,2.57,3.97c0.66,0.57,0.93,1.15,0.9,2.21c-0.03,1.02-0.07,2.4,0.84,3.35c0.36,0.37,0.4,0.86,0.38,1.34
		c-0.04,1.03,0.09,1.91,1.32,2.19c0.59,0.13,0.57,0.7,0.55,1.18c-0.04,0.84,0.16,1.57,0.8,2.16c0.29,0.27,0.61,0.6,0.58,1.01
		c-0.1,1.11,0.53,1.94,0.96,2.86c0.66,1.44,1.28,2.92,1.06,4.58c-0.04,0.31-0.09,0.71,0.06,0.94c1.36,2.09,1.01,4.59,1.67,6.86
		c0.53,1.85,0.43,3.92,0.66,5.88c0.2,1.7,0.79,3.43,0.05,5.15c0.78,2.41,0.37,4.89,0.48,7.34c0.02,0.34,0.19,0.59,0.47,0.78
		c0.92,1.88,1.08,3.97,1.55,5.97c1.32,5.62,3.67,10.85,5.94,16.11c2.68,6.22,5.23,12.43,6.21,19.24c0.45,3.13,1.66,6.15,1.31,9.39
		c-0.69,6.39-0.86,12.85-2.97,19.04c-0.76,2.24-1.22,4.57-2.06,6.83c-1.82,4.86-5.85,7.9-8.93,11.7
		c-2.81,3.47-5.99,6.64-9.27,9.67c-1.93,1.78-4.24,3.12-6.56,4.33c-3.6,1.87-7.31,3.52-10.96,5.31c-2.43,1.19-4.68,2.75-7.57,2.58
		c-0.72-0.04-1.32,0.51-1.9,0.94c-0.78,0.58-1.65,1.08-2.61,1.13c-5.34,0.23-10.59,1.21-15.9,1.7c-6.36,0.59-12.29-0.98-18.38-2.3
		c-4.62-1-8.72-2.94-12.84-5.03c-2.32-1.49-4.71-2.81-7.39-3.55c-6.32-4.61-12.37-9.48-17.57-15.41
		c-1.81-2.07-3.71-4.15-5.77-6.03c-0.59-0.54-1.19-1.14-1.27-1.98c-0.23-2.48-1.61-4.3-3.33-5.9c-1.77-1.64-2.01-4.12-3.44-5.95
		c-2.04-2.63-2.33-6.25-4.94-8.63c-0.88-0.81-1.2-2.33-1.28-3.54c-0.18-2.59-1.22-4.82-2.52-6.9c-1.82-2.91-1.42-6.32-2.44-9.41
		c-0.35-1.06-0.48-2.25-1.19-3.09c-1.5-1.78-1.98-3.78-1.74-6.01c0.18-1.65-0.5-2.94-1.6-4.08c-1.39-2.84-3.34-5.45-3.5-8.79
		c-0.02-0.39-0.19-0.79-0.39-1.12c-2.03-3.31-3.71-6.8-5.33-10.33c-0.63-1.37-1.63-2.51-2.68-3.63c-2.03-2.17-3.5-4.73-4.6-7.49
		c-1.41-2.29-3.21-4.28-4.83-6.4c-2.03-1.4-4.2-2.62-5.67-4.69c-0.14-0.19-0.3-0.43-0.52-0.47c-3.68-0.7-5.66-3.82-8.38-5.88
		c-0.87-0.66-1.8-0.85-2.66-0.33c-1.99,1.19-3.82,0.54-5.67-0.26c-0.42-0.13,0.38-0.93-0.61-0.89c-1.73,0.06-3.15-0.85-4.54-1.84
		c-1.96-1.4-4.11-1.83-6.39-0.72c-2.63-2.02-5.13-4.22-7.97-5.96c-1.42-1.53-3.41-2.34-4.83-3.86c-0.5-0.53-1.03-0.57-1.71-0.25
		c-2.03,0.96-3.8,0.31-5.57-0.87c-1.71-1.14-3.23-2.57-5.1-3.47c-0.21-0.05-0.42-0.1-0.62-0.14c-1.21,0.69-0.34,1.09,0.27,1.26
		c1,0.28,1.98,0.58,2.86,1.13c0.94,0.59,1.25,1.44,0.88,2.46c-0.39,1.06-1.32,1.02-2.21,0.86c-1.1-0.2-2.19-0.48-3.02-1.3
		c-0.68-0.67-1.48-0.89-2.4-0.76c-1.71,0.28-3.37,0.48-3.6-1.95c0.56-1.92,0.08-2.97-1.93-3.98c-2.09-1.06-3.98-2.45-6.37-2.88
		c-1.8-0.32-2.34-2.51-3.8-2.97c-1.4-0.45-3.17,0.59-4.68-0.09c-1.91-0.87-3.79-1.65-5.93-1.54c-3.15-0.69-6.19-2.05-9.53-1.45
		c-2.71-0.14-5.32,0.02-7.92,1.09c-1.92,0.79-4.29,0.06-6.16,1.4c-2.26,1.22-3.07,3.32-4.11,5.58
		c-2.16,4.66-1.73,10.06-4.64,14.48c-0.95,1.44-0.75,3.47,0.08,5.1c0.72,1.42,0.92,2.86,0.92,4.4c-0.01,2.96,0,5.91,0,8.87
		c0,4.5,0.5,8.86,2.6,12.96c1.48,2.89,1.3,6.22,2.13,9.3c1.41,5.23,2.85,10.43,4.82,15.48c2.24,5.74,5.76,10.82,8.34,16.4
		c1.09,2.35,2.88,4.33,3.1,7.11c0.08,0.99,0.88,1.94,1.69,2.56c3.02,2.29,4.03,5.67,5.08,9.02c0.61,1.93,1.3,3.76,2.64,5.32
		c3.88,4.51,7.15,9.39,9.27,15c0.59,1.56,1.4,3.06,2.32,4.46c1.41,2.14,2.78,4.23,2.97,6.95c0.1,1.5,0.95,2.86,2.3,3.78
		c1.44,0.99,2.49,2.4,2.73,4.09c0.44,3.19,2.44,5.51,4.02,8.07c0.17,0.27,0.41,0.51,0.53,0.79c1.77,4.21,4.4,7.87,7.14,11.48
		c1.17,1.54,0.81,3.56,1.34,5.27c2.83,9.16,2.88,18.55,2.68,27.99c-0.05,2.33,0,4.63,0.93,6.83c0.39,0.93,0.28,1.88-0.16,2.79
		c-0.89,1.83-0.92,3.69-0.21,5.58c0.4,1.07,0.39,2.19,0.41,3.32c0.11,6,1.51,11.87,4.12,17.09c2.58,5.16,4.55,10.7,8.2,15.37
		c2.25,2.88,2.97,6.72,5.24,9.66c2.63,3.4,4.22,7.5,7.18,10.68c0.73,0.78,1,1.8,1.38,2.77"/>
	<path class="st0" d="M225.03,631.93c0.04-0.07,0.3-0.02,0.46-0.03"/>
	<path class="st0" d="M163.54,632.01"/>
	<path class="st0" d="M131.78,244.27c0.42,0.28,0.85,0.42,1.34,0.44c0.62,0.03,1.02,0.43,1.38,0.86c1.18,1.41,0.95,2.11-0.94,2.43
		c-0.8,0.14-1.12,0.48-1.1,1.24c0,0.24,0.02,0.48-0.02,0.72c-0.25,1.62-1.54,2.55-2.9,1.74"/>
</g>
</svg>
